<svg xmlns="http://www.w3.org/2000/svg" xmlns:xlink="http://www.w3.org/1999/xlink" xml:space="preserve" version="1.1" style="shape-rendering:geometricPrecision;text-rendering:geometricPrecision;image-rendering:optimizeQuality;" viewBox="0 0 163.6 118.9625" x="0px" y="0px" fill-rule="evenodd" clip-rule="evenodd"><defs><style type="text/css">
   
    .fil0 {fill:black;fill-rule:nonzero}
   
  </style></defs><g><path class="fil0" d="M26.76 48.32c-11.06,0 -20.09,9.03 -20.09,20.09 0,11.05 9.04,20.09 20.09,20.09l110.08 0c11.06,0 20.09,-9.03 20.09,-20.09 0,-11.05 -9.04,-20.09 -20.09,-20.09 -1.91,0 -3.65,-0.3 -4.22,-2.5 -6.05,-23.08 -26.98,-39.15 -50.82,-39.15 -23.75,0 -44.61,15.94 -50.75,38.9 -0.43,2.37 -2.3,2.75 -4.29,2.75zm-1.51 -6.63c7.65,-24.76 30.63,-41.69 56.55,-41.69 25.93,0 48.9,16.93 56.55,41.69 14.11,0.8 25.25,12.57 25.25,26.72 0,14.7 -12.06,26.76 -26.76,26.76l-110.08 0c-14.71,0 -26.76,-12.05 -26.76,-26.76 0,-14.12 11.17,-25.92 25.25,-26.72z"/><path class="fil0" d="M124.66 47.92c0.46,1.78 -0.61,3.59 -2.38,4.05 -1.78,0.46 -3.59,-0.61 -4.05,-2.38 -4.33,-16.54 -19.35,-28.05 -36.43,-28.05 -1.84,0 -3.33,-1.5 -3.33,-3.33 0,-1.84 1.5,-3.33 3.33,-3.33 20.1,0 37.76,13.6 42.86,33.05z"/></g><text x="0" y="110.17" fill="#000000" font-size="5px" font-weight="bold" font-family="'Helvetica Neue', Helvetica, Arial-Unicode, Arial, Sans-serif"></text><text x="0" y="115.17" fill="#000000" font-size="5px" font-weight="bold" font-family="'Helvetica Neue', Helvetica, Arial-Unicode, Arial, Sans-serif"></text></svg>