<svg xmlns="http://www.w3.org/2000/svg" viewBox="0 0 64 80" x="0px" y="0px"><title>weather</title><g data-name="Layer 3"><path d="M34.66,64A24.45,24.45,0,0,0,59,39.5c0-18-22.06-38.13-23-39a2,2,0,0,0-2.68,0c-.94.85-23,21-23,39A24.45,24.45,0,0,0,34.66,64Zm0-59.24C39.39,9.39,55,25.7,55,39.5a20.35,20.35,0,1,1-40.69,0C14.31,25.7,29.92,9.39,34.66,4.76Z"/><path d="M34.67,56A16.45,16.45,0,0,0,51,39.46q0-.22,0-.45A2.24,2.24,0,0,0,48,37.1a23.62,23.62,0,0,1-5.46.66C35.2,37.75,31.67,33,27.15,33s-9,3.14-9,7.32C18.11,49.44,25.67,56,34.67,56Z"/></g><text x="0" y="79" fill="#000000" font-size="5px" font-weight="bold" font-family="'Helvetica Neue', Helvetica, Arial-Unicode, Arial, Sans-serif"></text><text x="0" y="84" fill="#000000" font-size="5px" font-weight="bold" font-family="'Helvetica Neue', Helvetica, Arial-Unicode, Arial, Sans-serif"></text></svg>