<svg xmlns="http://www.w3.org/2000/svg" xmlns:xlink="http://www.w3.org/1999/xlink" version="1.1" x="0px" y="0px" viewBox="0 0 16 20" style="enable-background:new 0 0 16 16;" xml:space="preserve"><path d="M8.128,1.706C7.917,1.708,7.731,1.842,7.662,2.041C6.308,5.903,4.858,9.792,3.353,13.599  c-0.078,0.196-0.024,0.42,0.134,0.559c0.158,0.14,0.386,0.164,0.571,0.063c0.42-0.231,0.683-0.501,0.96-0.787l0.226-0.229  c0.931-0.915,2.06-1.694,2.923-2.247c0.549,0.492,1.127,0.987,1.708,1.482c0.673,0.575,1.346,1.15,1.97,1.721  c0.095,0.087,0.216,0.131,0.338,0.131c0.094,0,0.188-0.026,0.271-0.08c0.19-0.123,0.274-0.36,0.204-0.576  c-1.344-4.095-2.67-7.892-4.057-11.607C8.528,1.834,8.346,1.685,8.128,1.706z M10.524,11.681c-0.672-0.573-1.343-1.147-1.966-1.717  C8.464,9.878,8.343,9.833,8.221,9.833c-0.092,0-0.184,0.025-0.266,0.076c-0.794,0.498-1.908,1.229-2.915,2.12  c1.072-2.765,2.112-5.563,3.104-8.354c1.012,2.753,1.996,5.564,2.983,8.522C10.928,12.026,10.726,11.854,10.524,11.681z"/><text x="0" y="31" fill="#000000" font-size="5px" font-weight="bold" font-family="'Helvetica Neue', Helvetica, Arial-Unicode, Arial, Sans-serif"></text><text x="0" y="36" fill="#000000" font-size="5px" font-weight="bold" font-family="'Helvetica Neue', Helvetica, Arial-Unicode, Arial, Sans-serif"></text></svg>